<svg id="Layer_1" xmlns="http://www.w3.org/2000/svg" viewBox="0 0 45.2 29.3"><style>.st0{fill:#fff}</style><path class="st0" d="M19.4 13.1H16V8.8h3.4v.9H17v.8h2.3v.9H17v.9h2.4v.8zm-7.6 0l-1.5-3.4v3.4H8.2l-.4-1H5.7l-.4 1H4.1L6 8.8h1.5l1.7 4.1V8.8h1.7l1.3 2.9 1.2-2.9h1.7v4.3H14V9.7l-1.5 3.4h-.7zm-4.4-1.9l-.7-1.7-.7 1.7h1.4zM24 17.6c0 1.2-.9 1.4-1.8 1.4H21v1.4h-2L17.7 19l-1.3 1.4h-4.1v-4.3h4.1l1.3 1.4 1.3-1.4h3.3c.8.1 1.7.3 1.7 1.5zm-7 .7l-1.1-1.2h-2.6v.8h2.3v.9h-2.3v.9h2.5l1.2-1.4zm2.9-1.6l-1.6 1.7 1.6 1.8v-3.5zm3 .9c0-.4-.3-.5-.6-.5H21v1.1h1.3c.4 0 .6-.2.6-.6zm-1.8-4.5h-1V8.8h2.4c.5 0 .9 0 1.2.2.3.2.5.5.5 1 0 .7-.5 1-.7 1.1.2.1.4.2.5.4.1.2.2.4.2.8v.8h-1v-.5c0-.3 0-.6-.2-.8-.2-.1-.4-.2-.8-.2h-1.1v1.5zm0-2.5h1.3c.2 0 .4 0 .5-.1.1-.1.2-.2.2-.4s-.1-.3-.2-.4c-.1-.1-.3-.1-.5-.1h-1.3v1zm4.8-1.8h-1v4.3h1V8.8zm1 3.8c-.4-.4-.6-.9-.6-1.6 0-.6.1-1.2.6-1.7.3-.3.9-.5 1.6-.5h1v.9h-1c-.4 0-.6.1-.8.3-.2.2-.3.5-.3 1s.1.8.3 1c.2.2.4.2.7.2h.5l1.4-3.4h1.5l1.7 4.1V8.8h1.6l1.8 3v-3H38v4.3h-1.5l-1.9-3.2v3.2h-2.1l-.4-1H30l-.4 1h-1.2c-.5 0-1.1-.1-1.5-.5zm3.5-1.4h1.4l-.7-1.7-.7 1.7zm-2.2-.7s-.1.2-.1.5 0 .4.1.5h.2l.4-1h-.4c-.1-.1-.2 0-.2 0zm17-9.3v27c0 .6-.5 1.2-1.2 1.2H1.2c-.6 0-1.2-.5-1.2-1.2v-27C0 .5.5 0 1.2 0H44c.7 0 1.2.5 1.2 1.2zM11.8 13.8h.9c.3 0 .5-.2.6-.4l.1-.3c0 .4.3.7.7.7h1.1c.1 0 .3-.1.4-.1.1.1.2.1.4.1h3.4c.1 0 .3 0 .4-.1.1.1.2.1.4.1h1c.4 0 .7-.3.7-.7v-.9h.6v.8c0 .4.3.7.7.7h1c.1 0 .2 0 .3-.1.1.1.2.1.3.1h1c.3 0 .6-.2.7-.6.6.5 1.4.6 1.9.6h1.2c.3 0 .5-.2.7-.4l.2-.5h1.2l.2.5c.1.3.4.4.7.4h2.1c.4 0 .7-.3.7-.7v-.7l.6 1c.1.2.4.3.6.3H38c.4 0 .7-.3.7-.7V8.8c0-.4-.3-.7-.7-.7h-1c-.4 0-.7.3-.7.7v.4l-.5-.8c-.1-.2-.4-.3-.6-.3h-1.6c-.4 0-.7.3-.7.7v.6l-.4-.9c-.1-.3-.4-.4-.7-.4h-1.5c-.2 0-.3.1-.4.1-.1-.1-.3-.1-.4-.1h-1c-.8 0-1.5.2-1.9.6-.1-.3-.3-.6-.7-.6h-1c-.3 0-.5.2-.6.4l-.1-.1c-.5-.3-1-.3-1.6-.3h-2.4c-.1 0-.3 0-.4.1-.1-.1-.2-.1-.4-.1H16c-.1 0-.3.1-.4.1-.1-.1-.2-.1-.4-.1h-1.7c-.3 0-.5.2-.7.4l-.6 1.5-.7-1.5c-.1-.3-.4-.4-.6-.4H9.2c-.4 0-.7.3-.7.7v.6l-.3-.9c-.2-.2-.4-.4-.7-.4H6c-.3 0-.5.2-.7.4l-1.8 4.3c-.1.2-.1.5.1.7.1.2.4.3.6.3h1.1c.3 0 .5-.2.7-.4l.2-.5h1.2l.2.5c.1.3.4.4.7.4h2.1c.4 0 .7-.3.7-.7l.1.3c0 .2.3.4.6.4zm30 5.3c0-.6-.2-1-.5-1.4.2-.1.3-.3.3-.6v-.9c0-.4-.3-.7-.7-.7h-2.1c-.6 0-1.1.2-1.5.5-.1-.3-.4-.5-.7-.5h-2.1c-.6 0-1 .1-1.4.4-.1-.2-.3-.4-.6-.4h-3.4c-.3 0-.5.2-.6.4l-.1-.1c-.5-.3-1-.3-1.6-.3h-2.4c-.3 0-.5.2-.6.4-.4-.2-.9-.4-1.6-.4H19c-.2 0-.4.1-.5.2l-.8.8-.7-.8c-.1-.1-.3-.2-.5-.2h-4.1c-.4 0-.7.3-.7.7v4.3c0 .4.3.7.7.7h4.1c.2 0 .4-.1.5-.2l.8-.8.7.8c.1.2.3.2.5.2h2c.4 0 .7-.3.7-.7v-.7h.6c.7 0 1.2-.1 1.6-.4v1.1c0 .4.3.7.7.7h1c.4 0 .7-.3.7-.7v-.9h.6v.8c0 .4.3.7.7.7h1c.1 0 .2 0 .3-.1.1.1.2.1.3.1h3.4c.1 0 .2 0 .3-.1.1 0 .2.1.3.1h2c.6 0 1.2-.2 1.5-.4.1.3.4.4.7.4h2c1.5.1 2.4-.7 2.4-2zm-6.4-1.2h-.6c-.2 0-.3 0-.4-.1-.1 0-.2-.2-.2-.3 0-.1 0-.2.2-.3.1-.1.2-.1.4-.1h1.9v-.9h-2.1c-1.1 0-1.5.7-1.5 1.3 0 1.4 1.2 1.3 2.2 1.3.2 0 .3 0 .4.1.1.1.1.2.1.3 0 .1-.1.2-.1.3-.1.1-.2.1-.4.1h-2v.9h2c1 0 1.6-.4 1.6-1.4 0-.4-.1-.7-.3-.9-.3-.2-.7-.3-1.2-.3zm-7.5.6c.2.1.4.2.5.4.1.2.2.4.2.8v.9h-1v-.5c0-.3 0-.6-.2-.8-.1-.2-.4-.2-.8-.2h-1.1v1.6h-1v-4.3h2.4c.5 0 .9 0 1.2.2.3.2.5.5.5 1 0 .4-.4.8-.7.9zm-.4-1c0-.2-.1-.3-.2-.4-.1-.1-.3-.1-.5-.1h-1.3v1h1.2c.2 0 .4 0 .5-.1.2 0 .3-.2.3-.4zm1.7 3h3.4v-.9h-2.4v-.9h2.3v-.9h-2.3V17h2.4v-.9h-3.4v4.4zm10.4-2.6H39c-.2 0-.3 0-.4-.1-.1 0-.2-.2-.2-.3 0-.1 0-.2.2-.3.1-.1.2-.1.4-.1h1.9v-.9h-2.1c-1.1 0-1.5.7-1.5 1.3 0 1.4 1.2 1.3 2.2 1.3.2 0 .3 0 .4.1.1.1.1.2.1.3 0 .1-.1.2-.1.3-.1.1-.2.1-.4.1h-2v.9h2c1 0 1.6-.4 1.6-1.4 0-.4-.1-.7-.3-.9-.3-.2-.7-.3-1.2-.3zm0 0"/></svg>