<svg id="Layer_1" xmlns="http://www.w3.org/2000/svg" viewBox="0 0 22.7 20.1"><style>.st0{fill:#fff}</style><path class="st0" d="M12.7 18.4c0 1-.8 1.7-1.7 1.7-.9 0-1.7-.8-1.7-1.7 0-.9.8-1.7 1.7-1.7.9 0 1.7.8 1.7 1.7zm6.8 0c0 1-.8 1.7-1.7 1.7-.9 0-1.7-.8-1.7-1.7 0-.9.8-1.7 1.7-1.7 1 0 1.7.8 1.7 1.7zm2.8-14.7c-.4-.4-1.1-.4-1.1-.4H6.1l-.5-2C5.4.5 4.8 0 4 0H0l.8 1.7h2.4c.6 0 1 .4 1.1.9l2.2 10.7c.3 1.3 1.4 2.2 2.7 2.2H19c1.4 0 1.4-1.5 1.4-1.5H9.7c-.6 0-1.2.1-1.6-1.5-.2-.7-.6-2.5-.6-2.5H21c.6 0 1.1-.5 1.2-1.1l.5-4.2c.1-.4 0-.6-.4-1zm-1.6 4.6H7.2l-.7-3h14.6l-.4 3zm0 0"/></svg>