<svg xmlns="http://www.w3.org/2000/svg" viewBox="0 0 47.4 34.7"><path d="M23.9 18.8c-.1-6-.4-12-.9-18 0-.3-.3-.6-.6-.6H11.3C8.1.2 4.4-.3 1.3.3 1 .4.9.6.8.8-.5 5 .6 11.1.6 15.6c0 3.5.2 3.7 3.5 3.8 13.2.6 26.3 1.2 39.5.8.4 0 .7-.4.6-.8-.7-4.7-4.4-6.9-8-9.4-1.8-1.3-2.3-2.5-4.3-2.8-2.8-.4-6 0-8.9 0-.8 0-.8 1.3 0 1.3 3.9 0 8.2-.7 11.4 1.7 2.4 1.8 13.1 8.8 5.3 8.9-9.9.2-19.8-.2-29.7-.6-2-.1-4-.2-5.9-.3-3.3-.2-2.3-6.7-2.3-8.5 0-1.6-1-8.2 2-8.2h7.4c3.6 0 10.4-1.7 10.8 3 .4 4.8.5 9.6.6 14.4.1.7 1.3.7 1.3-.1z"/><path d="M42.9 19.4c.6 1.3 1.2 2.5 1.9 3.7.9 1.6 2.8 5-.6 5.2-.8.1-.8 1.3 0 1.3 6.6-.4 1.2-7.9-.2-10.8-.4-.7-1.5-.1-1.1.6zm-10.4 9H15.7c-.8 0-.8 1.3 0 1.3h16.8c.8-.1.8-1.3 0-1.3zm-27.9.1c-.7 0-2.7.3-3-.8s-.3-2.2-.3-3.3c0-2.1.1-4.1 1-5.9.3-.7-.7-1.4-1.1-.6-1.3 2.7-1.3 5.7-1.1 8.7.1.9.2 2.3.9 3s2.7.3 3.5.3c.9-.2.9-1.4.1-1.4z"/><path d="M5.3 29.2c.3-2.6 1.6-4.6 4.5-4.4 1.1.1 2.2.4 3.2.9 1.4.7 1.5 2.6 1.6 4 .1 2.5-2.6 3.7-4.7 3.8-2.3 0-4-2-4.5-4.1-.2-.8-1.4-.5-1.2.3.7 3 3.2 5 6.3 5s5.5-2.5 5.3-5.5c-.2-3.8-2.5-5.1-6-5.6-3.6-.5-5.4 2.6-5.7 5.7-.1.7 1.1.7 1.2-.1zm28.2-.1c-.1-2.5 1-4 3.4-4.7 2.5-.7 4.3.5 5.5 2.7.7 1.2 1 2.7 0 3.9-.6.8-1.9 1-2.8 1.2-2.6.6-5.4-.1-6-3.1-.1-.8-1.3-.5-1.2.3.6 3.4 3.6 4.5 6.7 4.1 2.7-.3 5.9-1.8 5.1-5.1-.8-3.5-3.2-5.9-6.9-5.4-3.3.4-5.2 2.7-5.1 6 0 .9 1.3.9 1.3.1z"/></svg>