<svg xmlns="http://www.w3.org/2000/svg" viewBox="0 0 493.5 499"><path d="M446.7 211c3.1-4.4 6.8-10.2 11.3-17.9 7.2-12.2 15.2-27.2 16.8-31.5 1-2.6.9-5.5-.3-8.1-1.2-2.5-3.3-4.5-6-5.4-2.1-.7-4.3-1.5-6.7-2.4-12.9-4.7-28.5-10.4-43.2-11.8 5.7-18.1 6.6-40.1 5.3-53.6-.3-2.8-1.7-5.4-3.9-7.2-2.2-1.8-5.1-2.6-7.8-2.2-15.7 2.1-35.2 5-53.9 9.9-.5-3.2-1-6.4-1.5-9.8-2.2-14.7-4.4-29.9-10.1-44.1-1.8-4.5-6.4-7.2-11.2-6.4-17.3 2.7-31.6 14.6-44.2 25.1-2 1.7-4 3.3-5.9 4.9-7.2-11.6-15-23-22.5-34.1-2.7-4-5.4-7.9-8.1-11.9-1.9-2.9-5.2-4.6-8.6-4.6-3.5 0-6.7 1.7-8.6 4.6-3.7 5.6-7.2 11.5-10.6 17.2-5.6 9.5-10.9 18.4-17.3 26-1.6 1.9-2.7 3.1-3.3 3.7-1.9-.8-5-2.6-6.5-3.4-12.9-7.4-26.5-18-38.8-27.6-4.5-3.5-10.9-2.6-14.4 1.9-3.5 4.4-2.6 10.9 1.6 14.5-3.2-2.5-3.9-5.9-3.8-7.4-.1 2.4-2 11.2-5.6 26.2-.6 2.4-1 4.1-1.1 4.6-.6 3.1-1 6-1.4 8.8-1.6 11.4-1.6 11.4-6.5 11.4-.9 0-1.9-.1-3-.1-10-.9-20.7-3.5-31.1-6.1-5.6-1.4-11.2-2.8-16.6-3.9-3.5-.7-7 .4-9.5 2.8-2.5 2.5-3.5 6-2.8 9.5.3 1.3.8 5.1 1.6 10 3 20 5.3 33.5 7.3 42.7-18.8 2.2-43.3 10.3-51.6 13.5-3.2 1.2-5.6 4-6.4 7.3s.1 6.9 2.5 9.5c4 4.4 23.5 32 30.2 43.6-12.5 12-28.2 23.3-44.9 32-3.1 1.6-5.1 4.6-5.5 8.1-.4 3.4 1 6.8 3.6 9.1 5.2 4.4 12.7 7.9 20.5 11.6 9.8 4.6 23.1 10.8 25.6 17.3C46.6 296 28 325 21.4 331.4c-3 1.2-5.4 3.7-6.3 7-1.5 5.6 1.9 11.2 7.4 12.7 5 1.3 12.4 2 21 2.8 9.7.9 29.1 2.7 35 6 .3 10.4-5.8 43.4-9.1 51.3-2.2 2.3-3.4 5.6-2.8 9 1 5.7 6.3 9.5 12 8.5 6.3-1.1 13.2-3.5 20.5-6.1 9.5-3.4 20.2-7.2 28.3-7.2 2.8 0 5 .4 6.8 1.4 5.4 2.8 7.8 29.4 8.5 38.1.6 6.7 1.1 12.5 2 16.9 1 4.8 5.3 8.3 10.2 8.3 3.7 0 3.7 0 23.5-15.5 4.6-3.6 8.5-6.7 9-7.1 6.4-4.8 15.2-11.7 21.1-8.8 5.5 5.2 24.3 31.2 27.4 39.2-.3 3.7 1.5 7.5 4.9 9.6 1.7 1 3.6 1.5 5.4 1.5 3.5 0 6.9-1.8 8.9-5 2.6-4.2 5.1-9.4 7.7-15 6.4-13.6 15.2-32.1 26.1-32.8 7.1 2.1 32.7 16.7 38.7 23.2.6 3.5 3 6.6 6.5 7.9 5.3 2.1 11.4-.6 13.4-6 .4-1.1 1.6-4.4 7.6-34.5 1.6-8.1 2.8-14.2 3.7-18.9 2.3.6 4.7 1.3 7.2 1.9 13.8 3.8 29.4 8 43.2 8 2.1 0 4.2-.1 6.3-.3 5.6-.6 9.7-5.4 9.3-11-.2-3-1.9-11.8-7.1-36.6-1.3-6.3-2.8-13.5-3.9-19 3.5-1 7-2.1 10.5-3.1 14.2-4.3 27.5-8.3 41.2-8.7 3.5-.1 6.7-1.9 8.5-4.9 1.8-3 2.1-6.7.6-9.8-7-15.4-18.2-30.9-28.9-45.1 4.3-2.7 9.9-6.5 17.3-11.7 25.8-18.2 28.2-22.2 29.1-23.9 2.4-4.1 1.6-9.4-1.8-12.7-12.6-12-28.3-21.2-43.6-30zm-18.5 64.8c-1.6.3-3.1.9-4.5 2-4.6 3.5-5.5 10-2 14.6l2.2 2.9c8.4 11 17.7 23.1 24.8 35-10.5 1.8-20.6 4.9-30.5 7.9-6.5 2-12.6 3.8-18.9 5.3-9.8 2.5-8.1 11-6.1 20.9 1.1 5.3 2.6 12.5 4.1 19.9 1.4 6.8 3.2 15.5 4.6 22.5-9.5-1.1-20.1-4-30.5-6.8-6.7-1.8-13-3.5-19-4.8l-2.2 10.6-10.3-1.2c-.4 3.2-4.7 25.6-8.1 42.1-14.6-10.3-35.5-21.1-42.6-21.2-22 0-34.1 21.3-42.8 39.3-9.3-14.5-22.2-31.1-27.1-33.9-4.3-2.5-8.9-3.7-13.8-3.7-12.4 0-22.9 7.9-30.6 13.6-.4.3-4.5 3.5-9.4 7.4-.8.6-1.6 1.2-2.4 1.9-1.9-21.2-4.6-44.2-19.5-51.8-4.7-2.4-10.2-3.6-16.3-3.6-11.3 0-23.4 4.2-34.2 8 4.3-18.4 9.2-46.5 3.1-54.5-7.6-10.1-25.6-12.5-50.1-14.9 9.9-13.9 26-38.4 24.5-48-2.8-17.9-22.2-26.9-37.7-34.2-.6-.3-1.1-.5-1.7-.8 14.6-9.3 28-20.2 38.7-31.6 6.9-7.3 2.3-15.5-13.8-38.9-3.5-5.1-7.7-11-11.4-16.2 13-4 29.7-8.2 39.5-8.2 2.1 0 3.2.2 3.5.3 5.6 1.4 11.2-2 12.6-7.6.9-3.5-.2-7.1-2.4-9.6-2.5-6.7-6.5-31.5-8.4-44.6.4.1.7.2 1.1.3 11.1 2.8 22.7 5.6 34.2 6.6 1.7.2 3.3.2 4.8.2 23 0 25.5-17.6 27.1-29.3.3-2.5.7-5.1 1.2-7.7.1-.5.4-1.8.9-3.7 1.2-5 2.3-9.3 3.1-13 8.8 6.7 18.1 13.2 27.4 18.5 7 4 12 6.6 17.6 6.6 8.8 0 14.1-6.4 18.5-11.5 7.5-8.9 13.4-19 19.2-28.7.6-1 1.2-1.9 1.7-2.9 9.2 13.5 18.7 27.5 27 41.5 1.5 2.5 3.9 4.2 6.7 4.9 2.8.6 5.7.1 8.1-1.5 5.6-3.8 11.1-8.3 16.4-12.8 8.4-7 17-14.2 25.8-18 2.7 9.6 4.2 19.8 5.8 30.6 1.1 7.3 2.2 14.8 3.7 22 .6 2.9 2.4 5.4 4.9 6.9 2.5 1.5 5.6 1.8 8.4.9 16.4-5.1 35.1-8.5 50.5-10.8-.1 16.9-3.4 36.3-10.2 46.1-2.5 3.6-2.4 8.4.1 11.9 2.5 3.6 7 5.2 11.2 4 2-.6 4.5-.9 7.2-.9 11.6 0 26.1 4.9 38.6 9.4-6.9 12.9-18.9 33.7-24.2 39.4-2.3.8-4.4 2.4-5.8 4.6-2.9 4.9-1.2 11.3 3.7 14.2 3.4 2 7 4.1 10.6 6.2 11.2 6.5 22.6 13.1 32.4 20.7-11.5 9.2-32.6 23.9-39 27.2z"/><path d="M181.1 239.5h-20.8c.1-8.2.1-16.4.3-24.6 6.5-.6 13.1-.6 19.6-.6 11.7 0 11.7-18.2 0-18.2-10.4 0-20.7.3-31 2.1-4.4.7-7 5.6-6.6 9.8 0 .3-.1.5-.1.7-.8 26.6-.8 53.1 0 79.7.3 11.7 18.5 11.7 18.2 0-.3-10.3-.4-20.5-.5-30.8H181c11.9.1 11.9-18.1.1-18.1zm62.7 34.2c-5.4-2.8-10.3-6.2-15.1-10 9.9-9.5 16.8-22.4 14.2-36.5-3.1-17.2-17-27.5-32.5-33.3-5.6-2.1-9.6 1.4-10.7 6-1.1 1.4-1.7 3.2-1.7 5.4 0 29.2.1 58.4 1.7 87.5.6 11.7 18.9 11.7 18.2 0-.3-5-.4-10-.6-15 5.4 4.3 11.1 8.4 17.3 11.6 10.4 5.4 19.6-10.3 9.2-15.7zm-27.3-23.4c-.2-11-.2-22-.3-33.1 4 3.1 7.2 7.1 8.7 12.5 2.3 7.9-2.8 15.1-8.4 20.6zm68.6-44.6c11.6-1.1 11.7-19.3 0-18.2-7.8.8-15.5 1.5-23.2 2.9-3.9.7-6.7 5-6.7 8.8v90.1c0 2 .6 3.7 1.5 5 .9 3.6 3.7 6.7 8.5 6.7h18.2c11.7 0 11.7-18.2 0-18.2h-10v-28.6h9.1c5 0 9.1-4.1 9.1-9.1s-4.1-9.1-9.1-9.1h-9.1v-29c3.9-.5 7.8-1 11.7-1.3zm46.8 0c11.6-1.1 11.7-19.3 0-18.2-7.8.8-15.5 1.5-23.2 2.9-3.9.7-6.7 5-6.7 8.8v90.1c0 2 .6 3.7 1.5 5 .9 3.6 3.7 6.7 8.5 6.7h18.2c11.7 0 11.7-18.2 0-18.2h-10v-28.6h9.1c5 0 9.1-4.1 9.1-9.1s-4.1-9.1-9.1-9.1h-9.1v-29c3.9-.5 7.8-1 11.7-1.3z"/></svg>