<svg xmlns="http://www.w3.org/2000/svg" viewBox="0 0 32 30.6"><path d="M27 3.9c-.4-.3-.8-.6-1.3-.9C23.8 1.6 21.5.7 19.1.3H19c-.3 0-.5-.1-.8-.1-.7-.1-1.4-.2-2.1-.2-4 0-8.1 1.5-11 4.4-3 2.8-4.8 7-4.7 11.1 0 2 .5 4.1 1.3 5.9.5 1 1.1 2 1.8 2.9C1.6 22.1.3 19.2.2 16.2c-.1.1-.2 1.2 0 2.5.3 1.3.9 2.9 1.7 3.9.2.5-.3-.3-.2.1.3.4.6.9.9 1.3.2.2.4.4.6.7l.6.6c.8.7 1.6 1.4 2.4 1.8-.3 0 .7 1 2.1 1.5.2 0-.5-.4-.3-.4.8.5 1.6.9 2.5 1.2.1 0 .2.1.3.1h.1c.2.1.3.1.5.2 1.3.4 2.6.6 4 .7 1.6.1 2.7.1 4.3-.2C26.7 29 32 22.8 32 15.3c0-4.5-1.9-8.4-5-11.2.1-.1 0-.1 0-.2zM7.8 27.8c-1.4-.9-2.6-2-3.6-3.3-.4-.6-1-1.3-1.4-2.1-.9-1.6-1.5-3.5-1.4-4.6.1-.1.2.7.4 1.4s.5 1.4.6 1.3c-.2-.9-.5-2.4-.7-3.9-.2-1.5-.1-2.9-.2-3.6.3-1.9 1.1-3.6 2.1-5.2-1.2 2.2-1.9 4.7-1.9 7.4 0 6.3 3.8 11.6 9.2 14-1.2-.3-2.2-.8-3.1-1.4zm23.1-14.7c.1.5.1 1 .1 1.5 0-.2-.1-.4-.1-.5-.1-.2-.4-.4-.4-.6.1-.2.4-.2.4-.4zm-3.4 1.7c.1.2.4.5.4.4 0-.1.1-.2.1-.3 0-.7.2-1.1.2-1.1s0-.1.1-.2.1-.6.4-.5c.1 0 .2.1.4.4.1.2.3.3.3.5.2.2.4.5.4.5 0 .1 0 .2.1.4 0 .1.1.2.2.2s.1-.1.1-.1c0-.1.1-.1.2 0l.3.3c.1.1.2.1.2.1.1 0 .1-.2.1-.3 0 1.9-.3 3.8-1 5.6-.8 2-2 3.9-3.5 5.4-2.6 2.4-6.1 3.9-9.9 3.9-8 0-14.5-6.5-14.5-14.5 0-3.3 1.1-6.4 3-8.8.6-.8 1.2-1.3 1.2-1.2v.4c0 .1-.2.4-.5.7-.2 0-.3.1-.5.3-.2.3-.4.5-.5.7-.3.4-.3.8-.3 1 0 .2.1.3.2.4 0 0 .1.2.2.3l.1.2s.1.2.1.4c.1.2.1.6.1.8 0 .2 0 .5.1.6 0 .1.3.3.5.4.1.1.3.1.5.2.6.1.5 0 .5.1s.1.4.5.5c.1 0 .2.1.3.1.1.1.3.5.4.7.1.1.3.3.3.4.2.2.4-.5.3-.4 0 0-.6-.1-.6-.3 0-.2.5-.9 0-.9-.4 0-.6.1-.5-.4.1-.2 0-.3-.1-.3-.2-.1-.6.3-.8.1-.1-.1 0-.3 0-.5 0-.4.1-.7.2-1 .3-.5 1-.6 1.3-.6.2 0 .4 0 .5-.1.2 0 .3 0 .3.1.1.2 0 .6.1.7.3.3.3-.1.3-.1l.1-.4v-.3c0-.1.4-.4.7-.6.3-.3 1-1.2 1.9-1.6.9-.3 1.7-.2 1.7-.2h.3c.2 0-.1.4.2.4.2 0 .5-.1.5-.1s.1 0 .1-.1c.1 0 .3-.1.4-.2.1 0 .2-.1.3-.1.3-.1.2-.4 0-.6 0-.1-.1-.1-.1-.1v-.6c0-.1-.1-.1-.1-.1-.1 0-.2 0-.2-.1 0 0-.1-.1-.1-.2s-.1-.1-.3-.2c-.1 0-.2 0-.3-.1-.2-.1-.1-.3.1-.5s.5-.4.6-.4h.3c.1 0 .1 0 .2-.1v-.1c0-.2-.1 0 .3-.3.1 0 .1-.1.1-.2 0-.2-.2-.3-.3-.3-.1-.1-.3-.2-.4-.3l-.2-.2-.1-.1c-.1-.1-.3-.2-.5-.2-.1 0-.2 0-.2.1-.1.1-.1.1-.1.2s0 .2-.1.3l-.2.1-.2.2c-.1.1-.3.6-.5.5-.1 0-.2-.2-.3-.4-.1-.3-.3-.4-.4-.5-.3-.2-.6.2-.6.4 0 .1 0 .2-.1.3-.1.3-.2.5-.4.2 0-.1-.1-.1-.1-.1-.1-.1-.3 0-.4 0-.1 0-.4 0-.6-.1-.2-.1-.7.2-1.1.5-.4.1-.8.3-.8.3s-.6.3-.8.3c-.1 0-.1 0-.1.1s-.1.1-.2.1.4-.6 1.2-1.2c.5-.4 1-.7 1.6-1 1-.4 2-.8 3-1 .5-.2.7-.2.8-.3.8-.2 1.7-.3 2.5-.3 1 0 1.9.2 2.8.3 1.7.3 3.2.9 4.4 1.5.2.1.5.2.7.3.3.2.5.3.7.5.8.6 1.3 1.2 1 1.2-.2 0-.6 0-.9-.1-.3-.1-.6-.1-.8 0-.2.1-.4.1-.4 0-.1-.1-.3-.1-.5-.1H23c-.1 0-.5-.4-1-.5-.5-.1-.9.7-1.2.8-.3.1-.6.2-.7.2-.1 0-.3 0-.4-.1l-.2-.1s-.2 0-.4-.1c-.2 0-.5 0-.7.1-.2.1-.5.4-.6.8-.2.4-.3.9-.4 1.1l-.1.4-.2.4c-.1.2-.2.6-.3.8l-.1.4s-.1.6.2.3c.3-.2.6-.6.8-.7.2-.1.7-.2.9 0 .1.1.3.2.4.4.1.1.1.2.2.3.1.2.2.1.2 0v-.3c0-.1.1-.1.1-.1.1 0 .1.1.1.1v.2c0 .1.1.2.2.3.1 0 .6-.2.8 0 .2.2-.1.7-.3 1-.2.2-.4.4-.5.3-.1 0-.2-.1-.3-.1-.1 0-.2-.1-.3-.1-.1 0-.1-.2-.1-.3 0-.2-.1-.3-.2-.3h-.5c-.2 0-1.2.2-1.4 1-.2.8.2 2 .5 2.6.2.6.5 1.3.5 1.5l.1.3.2.5s.1.3.4.4c.3.1.7 0 .9.1.2.1.4.4.4.6v.3c0 .1 0 .3.1.4.1.2.2.6.2 1s-.1 1.1 0 1.6.2 1.2.3 1.6c.1.4.4 1.1.8 1 .2 0 .4-.2.6-.5.2-.3.3-.6.4-.8.2-.5.3-1.1.5-1.3.2-.2.4-.6.4-.9 0-.3 0-1 .2-1.4.2-.4.6-.6.7-.6.1 0 .2.1.2.1s.2.1.3 0c.1-.1-.1-.4-.1-.7 0-.3.4-.8.2-1.1-.2-.4-.3-.7-.1-.9.3-.2.5-.4.5-.5 0-.1.2-.4.1-.5-.2-.2-.7-.5-1.2-.9-.4-.4-.8-.7-.8-.7l-.2-.2c-.1-.1-.6-.4-.4-.6.2-.1.5.1.6.1.1.1.2.1.3.1.1 0 .4-.1.6 0 .1.1.2.2.4.3.2.2.3.4.5.6.3.3.7.7.8.9.2.2.4.3.6.4.1.1.3.2.4.4l.1.3.3.6c0-.2.1-.1.2.1zm0 0"/><path d="M15 15.9c-.2-.2-.5-.3-.7-.4-.2 0-.5-.2-.7-.3-.2-.1-.4-.3-.5-.4l-.1-.2v-.1c0-.1-.1-.2-.1-.2 0-.1-.1-.1-.1-.1l-.1-.1c0-.1-.2-.1-.4-.1s-.3 0-.3-.1-.1-.2-.1-.3l-.3-.3c-.1-.1-.3-.2-.5-.2-.1 0-.4.1-.6 0-.1 0-.2-.1-.3-.2-.1-.2-.3-.1-.5 0-.2.2-.4.5-.5.5-.2 0-.2.3-.3.6 0 .3-.1.5-.2.6-.6 1.1-.4 1.4-.4 1.4s.1.1.1.2c.1.1.2.3.3.5l.4.8c.1.3.5.5.6.6.2.1.4.4.6.6l.2.4c0 1.2.2 2.2.5 3 .3 1 1 2 1.2 2.3.3.3.6.6.8.6.2 0 .4 0 .4-.1.1-.1 0-.2-.1-.3-.1-.1-.3-.2-.4-.3-.1-.1-.1-.3-.1-.4 0-.1-.1-.3-.1-.4-.1-.1-.1-.3-.1-.5v-.5c0-.1.2-.3.3-.4.1-.1.3-.2.3-.2 0-.1 0-.2.1-.3 0-.1.1-.2.2-.2.1-.1.1-.2.1-.2V21c0-.1 0-.2.1-.2.1-.1.1-.2.1-.3v-.4c0-.1.1-.3.2-.4.1-.1.2-.2.3-.2.1 0 .2-.1.3-.1.1-.1.2-.2.2-.3 0-.1.1-.3.1-.4V18c0-.2 0-.5.1-.6.1-.1.2-.3.3-.4.1-.1.1-.3.2-.4v-.4c-.1.1-.3-.2-.5-.3zm11.5 4.7l-.4.4-.3.3c-.2.2-.5.5-.6.8-.1.2-.1.4-.1.6 0 .2.1.5.1.6 0 .4-.5.5-.7.7l-.3.3s-.2.4 0 .5c.2.1.8-.3 1.2-.6.4-.3.8.6 1.2.6.1 0 .3-.1.6-.4.3-.3.5-.5.7-.8.4-.4.9-.9.8-1.2-.1-.3-.4-.6-.4-.9 0-.3.2-.7.2-.9-.1-.2-.6-.3-.9-.3-.4 0-.7.3-.8.3-.1-.1-.2 0-.3 0zm0 0"/></svg>