<svg xmlns="http://www.w3.org/2000/svg" viewBox="0 0 261.4 59.3"><path d="M57.3 4c4-3.9 6.4-4 6.4-4s.8-.1 2.6.5c1.9.7 2 1.7 2 1.7v28.5c.2 8-1.7 11-4.1 13.2-1.4 1.1-2.4 1.2-2.6 1.2-.3 0-.6 0-.6-.5s.4-1.6.4-1.6c1.2-3 1.1-8.3 1.1-8.3L62.6 4s.1-.6-.4-.4c-4.7 4-5.3 9.7-5.4 12.4-.1 4.1 1.7 6.2 1.7 6.2s.5.4.4 1c0 .8-.7.7-.7.7-1.8-.2-4.6-2.2-5.6-4.6-.8-1.8-.8-3.7-.8-3.7.1-2.2 1.6-7.7 5.5-11.6zm204.1 27.2c0 9.2-5.5 9-5.5 9-5.3.2-6.6-5.4-7-11.1-.3-4.3 0-9 0-9s0-.2-.2 0c-1.8 3.2-3 8.1-3.6 11.8-.4 2.7-.5 5-.5 5s.1.5-.4.8c-2.9 1.3-4.7-.5-5.4-2.6-.9-2-1.4-13.9-1.4-14.5 0-.6-.5-.1-.5-.1-3.9 6.6-4 16.4-4 18.3 0 2-3.4 1.4-3.4 1.4-2.9-.2-2.8-1.6-2.8-1.6l-.1-2.4c-1 1.8-2.8 4.2-5.7 4-4.3-.3-5.1-4.7-5.2-5.5 0 0-2.1 5.6-8 5.5-4-.1-5.6-4.2-5.6-4.2s-1.6 4.3-5.5 4.2c-3.9-.2-7.2-4.7-6.9-10.6.3-5.9 1.2-8.8 1.2-8.8s.3-.6-.2-.6-3.9.1-3.9.1-1.9 7.7-10.1 17.3c0 0 .1 3 .1 6.3 0 6.3-.8 14.8-9.3 15.5-7.4-.5-7-6.2-7-6.2-.2-1.7.9-4.8 5.3-8.9 4.4-4.1 6.2-5.7 6.2-5.7l-.2-2.6c-2.8 4.7-7.1 4.4-7.1 4.4s-3.3.7-6.1-4.3c-.8 1.7-2.7 4.6-5.8 4.3-4.3-.5-5.2-4.8-5.2-5.5 0 0-2.2 5.6-8.1 5.5-4-.1-5.6-4.2-5.6-4.2-.5-.8-.8-2.1-1-2.9 0 .2-.1.3-.2.5-.9 2.3-3.2 6.4-6.6 6.5-6.4 0-6.6-9.9-6.6-9.9-1.8 4.4-5.4 10-12.2 9.9-6.7 0-7.5-2.5-7.5-2.8 0-.3-.1-.7.7-1.8.8-1.1 1.4-1.6 2-1.6.5 0 1.5.8 1.5.8s1.5 1.4 3.1 1.4c2.1-.1 2.6-1.8 2.7-3.5.2-1.7-1.1-3.6-2.8-5.1-1.7-1.5-3-2.7-3-2.7-2.4 4.1-4.3 6.8-5.6 9.2-3.3 5.3-6.5 6.1-7.7 6-1.7-.2-3.4-2-3.5-7.1-.2-5.3.3-14.1.3-14.6s-.4-.2-.4-.2c-6.4 6.8-8.4 20.9-8.4 21.2 0 .3-.6.6-1.2.6s.2 0-2.1-.1c-2.3-.1-2.1-4.5-2.1-4.5l.2-20.9c0-.7.7-1 2.9-.4s2.1 1.3 2.1 1.3l-.1 12.1c5.6-16.6 9.9-14 12.5-12.8 2.6 1.3 2.2 3.1 2.2 3.1s-.3 9.1-.4 12.4c-.1 3.2.3 4.5 1.1 4.6 1.8.4 8.2-11.9 8.2-11.9-2.8-3.1-1.3-6.8.9-8.5 1.5-1.1 3.3-1.2 3.3-1.2s2.9-.2 2.8 2.3c.1 2.7-2.9 5.9-2.9 5.9 5.7 4.1 8.4 6.2 8.8 9.4.2 1.5-.2 2.5-.2 2.5 4.1-3.5 4.4-7.5 4.4-7.5l.1-13.2-6-.1s-.5 0-.5-1.2c0-2.1 1.1-3 1.1-3l5.8.1s.2-6 .2-6.9c.2-1.4 1.1-1.6 3.6-.9 2.5.7 2.5 1.2 2.5 1.2l-.3 7s6.3.3 7.2.4c.8.1 1.1.3.9 1.7-.2 1.4-1 1.8-1 1.8l-7.1.2-.6 15.1c0 2.4.1 8 2.3 8 3.1.2 4.9-6.8 4.9-6.8v-.1c0-1.1 0-2.4.1-3.8.6-5.6 3.1-12.1 8.8-12.1 0 0 3.5-.1 5.3 3.3l.1-1.3s-.1-1.5 2.3-1.1c2.4.4 3.2 1.3 3.2 2.1 0 0-.4 9.7-.2 15.5.3 3.3.9 5.3 2.6 5.2 1.5-.2 2.5-2.2 3.1-3.9-2.1-17.7 7.6-19.8 7.6-19.8s4.3-.3 6.2 3.3l.1-1.2s-.2-1.6 2.1-1.1c0 0 .9.1 2 .5 1 .4 1.3.6 1.3 1.6 0 .9-.2 17.5-.2 17.5s5-6.8 6.3-13.4c0 0-1.8-1.3-1.6-3.2.1-1.9 1.1-4.1 3.8-4.1 2.8 0 2.9 2.4 2.5 4.1 0 0 2.3-.3 4.4-.8 2-.5 4.7-.8 4.9 2.3.1 1.1-.4 2-.4 2s-1.6 7-1.3 9.8c.3 2.8 1 7.1 3.2 6.6s3-3.6 3-3.6-.9-3.6-.4-7.8c.6-5.5 3.1-12 8.8-12 0 0 3.5-.1 5.3 3.3l.1-1.3s-.1-1.5 2.3-1.1c2.4.4 3.2 1.3 3.2 2.1 0 0-.4 9.7-.2 15.4.3 3.3.9 5.3 2.6 5.1 1.6 0 3-2.8 3.9-5.1v-.8l.1-16.3c.1-.9 1-1 1-1l2 .3c2.7.4 2.4 1.5 2.4 1.5v9.2c2-6.3 3-8.6 3.9-10.2.8-1.4 3.4-.5 3.4-.5s2.8.7 2.9 3.3c-.1 4.3.5 11.2.5 11.2 0 .1.1.1.2.1v-.2c.6-4.5 3.1-11.8 4.1-13.7 1-1.9 3.9-.5 3.9-.5 3.5 1.2 3 3.3 3 3.3-1.1 17.9 1.2 19.1 2.5 19.2 1.3.1 2-1.6 2.3-2.4.3-.8.7-2.6.9-3.3.2-.7.9-.7.9-.7s.4-.2.4.5zM142.7 17.5c-1.2 0-4.1.9-4.7 8.9-.5 8.1 1.6 10.1 3.4 10.4 1.8.2 5-2.7 5.2-11.2.2-8.6-3.9-8.1-3.9-8.1zm25.3 0c-1.3 0-4.4 1.1-5.1 8.9-.5 8.2 1.6 10.3 3.5 10.5 1.8.2 5.1-2.7 5.3-11.4.1-8.6-3.7-8-3.7-8zm4.2 25.1c-7.1 6.2-7.8 10.6-7.8 10.6s-.7 3.6 2.7 3.8c4.1.4 4.8-4.6 4.9-9 .1-2.1.2-5.4.2-5.4zm39.1-24.8c-1.2 0-4.1.9-4.7 8.9-.5 8.1 1.6 10.1 3.4 10.4 1.8.2 5-2.7 5.2-11.2.2-8.6-3.9-8.1-3.9-8.1zM39.4.1H5.3C2.4.1 0 2.5 0 5.5v34.1c0 2.9 2.4 5.3 5.3 5.3h34.1c2.9 0 5.3-2.4 5.3-5.3V5.5c.1-3-2.3-5.4-5.3-5.4zm-8.3 6.4c0-.7.6-1.2 1.3-1.2h6.1c.7 0 1.3.6 1.3 1.2v6c0 .7-.6 1.2-1.3 1.2h-6.1c-.7 0-1.3-.6-1.3-1.2v-6zM22.4 14c4.8 0 8.6 3.8 8.6 8.6 0 4.7-3.9 8.6-8.6 8.6-4.8 0-8.6-3.8-8.6-8.6s3.9-8.6 8.6-8.6zm17.4 24.5c0 .7-.6 1.2-1.3 1.2H6.4c-.7 0-1.3-.6-1.3-1.2V19h4.2c-.3 1.1-.5 2.3-.5 3.6 0 7.5 6.1 13.6 13.6 13.6S36 30.1 36 22.6c0-1.2-.2-2.4-.5-3.6h4.2v19.5z"/></svg>