<svg id="A_x5F_HATCH" xmlns="http://www.w3.org/2000/svg" viewBox="0 0 1080.9 212.5"><style>.st0{fill:#fff}.st1{fill:#62bbb7}</style><path class="st0" d="M679.8 168l.5 4.1c2.4 18.4 16.7 33.6 34.9 37l4.1.6 6.1.8 6.2.5 6.2.2 6.2-.2 6.2-.5 6.2-.8 4.1-.6c18.3-3.5 32.5-18.6 34.9-37l.4-4.1V85.5h-41.6V162l-.6 2.3c-5.7 16.5-28.7 14.7-32.1-2.3V85.5h-41.7V168"/><path class="st0" d="M632.1 85.5h-67.7v122.3h40.4v-35.4h27.3l4-.5c51.9-9.3 48.5-81.8-4-86.4zm-8.6 52.9l-1.7.4h-16.9v-18h16.9l1.7.4c8.6 2.5 8.5 14.6 0 17.2zm206.7 16.7l9.9 2.4 9.8 2.8 9.7 3.3 1.6 1c6.8 5.1 3.4 15.9-5 16.5h-1.8l-2.5-.4c-5.9-1.2-10.6-5.9-11.9-11.8l-.3-2.5h-39.4l.1 3.8c3.4 44.2 56.5 51.6 88.1 31.9l4.1-2.6 2.8-2.4 2.6-2.6c8.3-9.1 11.6-22.8 8.3-34.7l-1.1-3.6-1.4-3.5c-6.3-12.7-25-23.1-39.1-23l-4.7-.2-4.8.2-1.6-.1c-5-1-8.3-6.1-6.6-11l.6-1.6 1.3-1.4c6.4-5.5 16.3-1 16.4 7.3l-.2 1.9h41.6l-.8-4.1-1.1-4c-10.2-32.1-48.5-44-77.4-29.6l-3.9 2.2-3.7 2.5c-23.6 14.8-21.2 49.4 4 60.9l3.2 1.2 3.2 1.2m-332-35.5l19.2-34.1h44.2l-39.7 70.2v52.1h-47.4v-52.1l-39.7-70.2h44.1zM293.7 85.5h-40.4l-41.1 122.3h42.4l3.5-15.3H289l3.5 15.3h42.3L293.7 85.5zm-28.4 74.3l8.1-36.5 8.2 36.5h-16.3zM432 122.1h-35v85.7h-41.1v-85.7h-35V85.5H432zm-223.6 51.1v34.6h-88.8V85.5H160v87.7z"/><path class="st0" d="M67.7 85.5H0v122.3h40.4v-35.4h27.3l4-.5c51.8-9.2 48.5-81.9-4-86.4zM59 138.4l-1.7.4H40.4v-18h16.9l1.7.4c8.7 2.6 8.7 14.5 0 17.2z"/><path class="st1" d="M923.7 103.9v103.9H977l6-.2 6-.5c76.8-9.3 116.9-95 75-159.9l-3.5-5-3.6-4.7c-50-59.2-143.3-46.1-175 24.6l-2.3 5.6-1.9 5.7 4.4 1.7 4.2 2.1 4.1 2.4 3.9 2.6 3.6 3 1.4-5.2 1.7-5c23.1-59 99.9-70.8 139.6-21.4l3.2 4.3 2.8 4.5c30.9 52.4-3.6 118.2-64.4 122.6l-5.3.2h-30.6V104l.2-3.2c2.9-24.9 32-36.1 50.8-19.5l2.3 2.3 2 2.5c13.6 19.2 2.1 45.5-21.5 48.4l-3.2.1h-19.2v22.8H977l4.4-.2 4.4-.5c39.9-7.1 57.9-53 33.3-85.3l-2.9-3.4-3.1-3.1c-31.4-28.4-81.4-11.4-88.6 30.5l-.5 4.4-.3 4.1"/></svg>