<svg xmlns="http://www.w3.org/2000/svg" viewBox="0 0 151.9 151"><path d="M150.9 97.8c-.4-18.2-.1-36.4-1-54.6.3-.2.5-.5.4-1-1.1-5.7-8.9-10.3-13.2-13.5-7.2-5.4-14.8-10.2-22.2-15.2.1-.2.2-.4.2-.7 0-1-1.5-1.5-1.9-.5-.3.5-.6.9-.9 1.4l-.1.1c-.7.7-1.4 1.4-2 2.2-.6.8-1.2 1.7-1.7 2.6-.5.5-.9 1-1.4 1.5C103.5 8.2 93.6-.2 79.5 0 73 .1 67.3 2.8 62.6 6.9c-.1 0-.2.1-.2.2-6.9 6.2-11.3 15.7-11.9 24.7-.5 6.8 1.2 13.7 4.3 20.2-2.7 2.8-5.4 5.7-8 8.6-2.8 3-14.4-8.1-16.5-9.7-9.4-7.2-18.7-14.3-28.9-20.2v-.2c-.1-.5-.8-.5-.8 0v.2c-.2.2-.2.5 0 .7C.7 62.2-.9 93.2.6 124c.1 1.2 2 1.2 1.9 0 1 1.7 6 5.5 6 5.5 4 3.1 8 6.1 12.1 9 6.5 4.7 14.2 10.1 22.3 11.5.5.1.8-.2 1-.4.1.1.3.2.4.2.5.5 1.6.3 1.6-.6v-.2c10-5.9 19.5-12.8 29.2-19.2 11.7-7.8 24.7-13.1 36.6-20.6 11.7 11.3 24.6 21.2 33.8 34.9.8 1.2 2.4.2 2-1 .3-.4.6-.8.9-1.3.4 0 .8-.3.9-.8l.3-1.5c0-.1.1-.2.1-.2v-.2c2.5-13.6 1.5-27.6 1.2-41.3zm-107 50.9c-.1-.2-.2-.3-.5-.4-15.4-5.7-26.6-16.8-40.7-24.5.3-.1.2-.5-.1-.5-.1 0-.1 0-.1.1-1.2-30.3 2.4-61-1-91.2 15 9.8 28.4 21.7 42.9 32.1-.6 28.1-.5 56.2-.5 84.4zM92.6 5c5.7 2.5 9.2 6.2 11.2 10.5-1.8-1.6-3.9-3-5.7-4.4-3-2.3-5.9-4.7-8.8-7.1-.4-.3-1 .2-.6.6 2.5 2.3 5.3 4.4 7.9 6.6 2.7 2.2 5.2 4.8 8.1 6.6h.1c.1.4.3.9.4 1.3-.5-.4-1.1-.7-1.5-1-2.5-1.8-5.1-3.5-7.6-5.3s-5-3.6-7.4-5.6c-1-.8-3.7-2.9-4-4.4 2.4.3 5.1 1 7.9 2.2zm-8.5-2.2c-.8 3.4 5.6 7.2 7.7 8.8 2.6 2 5.4 4 8.1 5.9 1.7 1.2 3.6 3.1 5.6 4 .3 1.7.4 3.4.4 5.1-8.7-8.8-17.8-18.3-29.1-23.5 2.3-.5 4.8-.6 7.3-.3zm6.2 24.7c.3.2.5.4.8.5-.3.8-.6 1.7-1 2.5l-.3-.3c-.4-.4-1.1.2-.7.7l.5.5c-1.6 2.7-4 4.8-7.2 5.7-16.1 4.7-17.8-20.8-6.1-25.1.1 0 .1 0 .2-.1 1.7-.6 3.7-.8 6-.3.3.1.4-.1.5-.2 1.5.2 2.9.6 4.4 1.5 3 1.9 4.2 5.7 4.5 9 .1 1.7-.1 3.5-.5 5.2-.2-.1-.4-.3-.6-.4-.5-.3-1 .5-.5.8zM81 39.7h.4v.5c0 .1.2.1.2 0-.1-1.6 2.4 1.4 2.7 1.8.9 1.1 1.8 2.3 2.8 3.4 2.6 3.1 7.3 5.1 10.7 7.3.1.1.2.1.4.1-.8 1.5-1.6 2.9-2.5 4.2-6.3-6-12.7-11.7-19-17.5 1.3.2 2.7.3 4.3.2zm8.6 6.4c-2-1.3-3.4-3.5-5-5.3-.3-.4-.9-1-1.5-1.4.9-.2 1.7-.5 2.4-.9 4 4.1 8.9 9.1 14.2 10.9-.4.9-.8 1.7-1.3 2.5 0-.1 0-.1-.1-.2-2.5-2.2-5.7-3.8-8.7-5.6zm3.1-2.5c-2.3-1.7-4.4-3.6-6.4-5.5.8-.5 1.5-1 2.2-1.6 2.5 1.7 4.9 3.6 7.3 5.4 1.8 1.4 3.6 2.9 5.6 3.9-.4.9-.7 1.7-1.1 2.5-2.5-1.6-5.2-2.9-7.6-4.7zm-3.6-7.8c.8-.8 1.6-1.8 2.2-2.8 1.3 1.2 2.6 2.3 4 3.4 1.2.9 2.5 1.8 3.7 2.7 1 .7 2.9 1.8 3.8 2.9-.3.9-.7 1.8-1 2.7-4.2-2.9-8.4-6.1-12.7-8.9zm9.1 1.1c-2.2-1.5-4.4-3.1-6.4-4.8.5-.9.9-1.8 1.2-2.7 2.3 1.8 4.4 3.9 6.6 5.8.6.5 3.1 3.1 4.5 2.9-.2.8-.4 1.5-.7 2.3-.1 0-.1-.1-.2-.1-1.5-1.3-3.7-2.5-5-3.4zm5.7.1c.3-.3-1.3-1.2-1.8-1.6-1.3-1-2.6-2.1-3.9-3.2-1.6-1.3-3.2-2.7-4.9-3.9.3-1 .6-2.1.7-3.2 1.2 1 2.5 1.9 3.6 2.8 2.4 1.9 4.8 4 7.2 5.9.1 0 .1 0 .2.1-.2 1-.4 2-.7 2.9 0 0-.2 0-.4.2zM99 27.5c-1.6-1.2-3.2-2.6-4.8-3.7 0-.4.1-.8.1-1.2 0-1.9-.4-4-1.2-5.9 4.2 4 8.3 8.1 12.8 11.8-.1 1.3-.3 2.5-.5 3.8-2-1.6-4.2-3.2-6.4-4.8zM75.9 3.3c2.8 1.6 5.4 3.4 7.8 5.3-1.5-.3-3.2-.2-4.9.4-1.7-1.8-4-3.2-5.9-4.8 1-.4 2-.7 3-.9zM72 4.5c1.9 1.8 3.9 3.5 5.9 5.1 0 .1-.1.1-.1.2-.9.1-1.8.3-2.6.6-1.8-1.6-3.7-3.1-5.4-4.8.8-.5 1.5-.8 2.2-1.1zm-2.7 1.3c1.5 1.8 3.3 3.4 5.1 4.9-.6.3-1.2.7-1.8 1.1-1.1-.7-2.2-1.4-3.2-2.2-.9-.7-1.7-1.5-2.6-2.2.9-.6 1.7-1.1 2.5-1.6zm-2.9 1.9c1 .9 2 1.9 2.9 2.8.7.6 1.5 1.4 2.4 2-.4.4-.8.7-1.1 1.1-1.2-.9-2.6-1.6-3.8-2.6-.8-.7-1.5-1.3-2.1-2 .5-.5 1.1-.9 1.7-1.3zm-5 4.6c1.6 1.8 3.6 3.6 5.7 4.3.4.1.6-.4.4-.6-.9-.9-2.2-1.5-3.3-2.3-.8-.6-1.6-1.2-2.3-2 .7-.8 1.5-1.6 2.3-2.3.6.7 1.3 1.4 2 2.1 1 1 2.3 2.3 3.7 2.9-1.2 1.7-2.1 3.7-2.7 5.8-1.4-1.1-2.9-2-4.3-3.1-1.1-.9-2.1-1.9-3.1-2.9.5-.5 1.1-1.2 1.6-1.9zm-1.9 2.5c1.1 1.2 2.2 2.3 3.4 3.4 1.2 1.1 2.6 2.3 4.1 3-.2 1-.4 2-.5 3 0-.1 0-.2-.1-.3-2.8-2.2-5.6-4.5-8.4-6.6.5-.9 1-1.7 1.5-2.5zm-1.9 3.1c2.6 2.4 5.1 5.1 8.2 6.8.3.2.7-.1.7-.4-.2 2.3.1 4.7.8 6.8-3.8-3.3-7.4-6.8-11.1-10.3.4-1 .9-2 1.4-2.9zm-1.7 3.5c4 4.3 7.9 8.9 12.7 12.5 1.4 2.4 3.6 4.2 6.7 5.2 6.2 6.5 12.5 13.5 19.6 19-.5.8-1.1 1.6-1.6 2.3-.2.3-.5.6-.7.9-.3-1.1-1-2.2-1.8-3.4.8.6 1.5 1.1 2.3 1.7.6.4 1.4-.5.8-1C81 47.2 68.4 35 54.9 24.5c.3-1.1.6-2.1 1-3.1zm-1.2 3.7c4.8 4.4 9.5 9.1 14.2 13.8-4.9-4-9.8-7.9-14.7-11.9.1-.7.3-1.3.5-1.9zm-.7 2.7c6.5 5.5 13 10.9 19.5 16.4 3.9 3.3 7.7 6.7 11.3 10.3 2.1 2 5.9 5.1 6.8 8.1-1 1.2-2 2.5-3.1 3.9-10.3-12.2-22.1-24.8-35.1-34 .1-1.6.3-3.2.6-4.7zm-.6 5.3C66 43.4 75.6 56.7 87.9 67.4c-.3.3-.5.7-.8 1-10.4-11.2-22.9-20.7-33.6-31.6-.1-1.2-.2-2.5-.1-3.7zm1.3 10.5c-.6-1.8-.9-3.7-1.1-5.6 10.1 10.8 20.7 22.7 32.7 31.4-.8 1.1-1.5 2.2-2.2 3.3-6.6-11.5-18.6-21.2-29.4-29.1zm3.8 8.9c-.1-.1-.1-.2-.2-.3 7.2 8.7 15.7 16.4 24.2 23.6-.3.6-.5 1.3-.7 1.9-7.5-8.6-16.4-16-23.3-25.2zm23 26.8c-.1.7-.2 1.3-.1 2-7.4-6.6-14-14-19.2-22.4 5.9 7.3 12.7 13.8 19.3 20.4zM57.2 49.6c-.6-1.3-1.2-2.7-1.7-4.1 0-.1-.1-.2-.1-.3 10.4 8.6 19 18.5 28.3 28.4-.2.3-.3.7-.5 1-8.2-8.8-18.1-15.9-26-25zm53.5 57.3c-.1 0-.2 0-.2.1-10.7 6.6-22.1 11.7-32.8 18.3-11 6.7-21.2 14.7-31.8 21.9 0-27.5.1-55-.5-82.5.3 0 .6-.1.8-.3 3.3-3.3 6.4-6.7 9.6-10.1 5.9 11.2 15.6 21.2 24.4 28 .4.3.8.1 1-.2.4 1.3 2.5 1.2 2.4-.3-.4-7.8 10.8-18.5 15-24.5 4.9-7 9.5-17.5 9.8-26.1 0-.6 0-1.2-.1-1.8v-.2c-.1-2.3-.3-4.6-.7-6.8.1-.1.2-.2.4-.3.9-.7 1.6-1.6 2.4-2.5 1-1.2 1.9-2.4 2.8-3.7 4.4 30.5-1.9 60.6-2.5 91zm36.4 33.4c-.2.3-.3.6-.5 1-3.2-5.9-8.7-10.9-13.4-15.5-6.5-6.3-13.5-12.2-20.6-17.9 0-.1.1-.2.1-.3.5-30.9 7.4-61.9 1.5-92.6 11.3 9.6 25.5 15.8 34.4 28.1.1.1.2.2.4.3-.2 16.1-.4 32.1-.3 48.2-.1 16 1.8 32.7-1.6 48.7z"/></svg>