<svg id="Layer_1" xmlns="http://www.w3.org/2000/svg" viewBox="0 0 514.2 514.6"><style>.st0{fill:#fff}</style><path class="st0" d="M513.7 120.4c-.1-9.3-.8-18.5-2.5-27.6-2.1-11.1-5.1-22-10.4-32.1-5.6-10.6-12.7-20.2-21.4-28.6-13.4-12.7-28.8-21.8-46.8-26.6C416.4 1.2 399.9.2 383.2.2c0 0-.1-.2-.1-.3H131v.3c-9.5.2-18.9.1-28.3 1.3-10.3 1.3-20.5 3.2-30.3 6.8C57 14 43.7 22.9 32.3 34.7c-12.9 13.4-22 28.9-26.9 46.9-4.3 16.1-5.2 32.5-5.3 49L0 383.7c.3 11.4.4 22.9 2.3 34.3 2 12 5 23.7 10.5 34.6 7.5 14.8 17.9 27.2 30.9 37.4 9.4 7.3 19.6 13.1 30.9 16.8 16.5 5.3 33.6 7.4 50.9 7.5 10.8.1 21.6.3 32.4.3 78.4-.3 156.8.6 235.2-.5 10.4-.1 20.6-1.4 30.8-3.3 19.6-3.6 36.9-11.9 51.7-25.1 17.2-15.4 28.9-34.2 34.1-56.9 3.4-14.8 4.3-29.9 4.4-45v-3c.1-1.3-.3-257-.4-260.4zm-68.8 238.1c-3.3 7.7-19.9 14.1-48.1 18.4-2.6.4-3.8 4.7-5.3 11.7-.6 2.9-1.3 5.7-2.1 8.7-.8 2.8-2.6 4.2-5.6 4.2h-.4c-1.9 0-4.6-.3-8-1-6-1.2-12.6-2.2-21.1-2.2-4.9 0-10.1.4-15.2 1.3-10.5 1.7-19.4 8.1-28.9 14.8-13.3 9.4-28.3 20-50.7 20-1.1 0-2.1 0-2.9-.1-.6.1-1.3.1-1.9.1-22.4 0-37.4-10.6-50.7-20-9.5-6.7-18.4-13-28.9-14.8-5.1-.9-10.3-1.3-15.2-1.3-8.9 0-16 1.4-21.1 2.4-3.2.6-5.9 1.1-8 1.1-2.2 0-4.9-.5-6-4.3-.9-3-1.5-5.9-2.1-8.7-1.5-7-2.7-11.3-5.3-11.7-28.1-4.3-44.8-10.7-48.1-18.5-.3-.8-.5-1.6-.6-2.4-.1-2.3 1.5-4.3 3.8-4.7 22.3-3.7 42.2-15.5 59.1-35.1 13-15.2 19.5-29.7 20.1-31.3 0-.1.1-.1.1-.2 3.2-6.6 3.9-12.3 1.9-16.9-3.6-8.6-15.6-12.4-23.6-14.9-2-.6-3.8-1.2-5.3-1.8-7-2.8-18.6-8.7-17.1-16.8 1.1-5.9 8.9-10 15.3-10 1.8 0 3.3.3 4.6.9 7.1 3.3 13.6 5 19.1 5 6.9 0 10.2-2.6 11-3.4-.2-3.7-.4-7.5-.7-11.2-1.6-25.7-3.6-57.6 4.5-76C186 85 237.8 80.7 253.2 80.7c.4 0 6.7-.1 6.7-.1h.9c15.4 0 67.3 4.3 91.8 59.1 8.2 18.3 6.2 50.3 4.5 76l-.1 1.2c-.2 3.5-.4 6.8-.6 10 .8.7 3.8 3.1 10 3.3 5.3-.2 11.3-1.9 18-5 2.1-1 4.3-1.2 5.9-1.2 2.3 0 4.7.5 6.7 1.3h.1c5.7 2 9.4 6 9.4 10.2.1 3.9-2.9 9.8-17.2 15.5-1.5.6-3.3 1.2-5.3 1.8-8 2.5-20 6.3-23.6 14.9-2 4.6-1.3 10.3 1.9 16.9 0 .1.1.1.1.2 1 2.3 25.2 57.5 79.2 66.4 2.3.4 3.9 2.4 3.8 4.7.1.9-.1 1.7-.5 2.6z"/></svg>