<svg id="Isolation_Mode" xmlns="http://www.w3.org/2000/svg" viewBox="0 0 280.8 268"><style>.st0{fill:#d55571}</style><path class="st0" d="M221 268c-1.6 0-3.2-.4-4.7-1.1L140.4 227l-75.9 39.9c-3.4 1.8-7.5 1.5-10.5-.8-3.1-2.2-4.6-6-4-9.8l14.5-84.5L3 111.9c-2.7-2.7-3.7-6.6-2.5-10.3 1.2-3.6 4.3-6.3 8.1-6.8l84.9-12.3 38-76.9c1.7-3.4 5.2-5.6 9-5.6s7.3 2.2 9 5.6l38 76.9 84.9 12.3c3.8.5 6.9 3.2 8.1 6.8 1.2 3.6.2 7.6-2.5 10.3l-61.4 59.9 14.5 84.5c.6 3.8-.9 7.5-4 9.8-2 1.3-4.1 1.9-6.1 1.9zM31.5 111.7l50.7 49.4c2.4 2.3 3.4 5.6 2.9 8.9l-12 69.8 62.6-32.9c2.9-1.5 6.4-1.5 9.3 0l62.6 32.9-12-69.8c-.6-3.2.5-6.6 2.9-8.9l50.7-49.4-70-10.2c-3.3-.5-6.1-2.5-7.5-5.5l-31.3-63.5L109.1 96c-1.5 2.9-4.3 5-7.5 5.5l-70.1 10.2zm0 0"/></svg>